<?xml version="1.0" encoding="utf-8"?>
<!-- Generator: Adobe Illustrator 26.2.1, SVG Export Plug-In . SVG Version: 6.00 Build 0)  -->
<svg version="1.1" id="Layer_1" xmlns="http://www.w3.org/2000/svg" xmlns:xlink="http://www.w3.org/1999/xlink" x="0px" y="0px"
	 width="475px" height="60px" viewBox="0 0 475 60" style="enable-background:new 0 0 475 60;" xml:space="preserve">
<style type="text/css">
	.st0{fill:#FFFFFF;}
	.st1{fill:#FF0000;}
</style>
<g>
	<path class="st0" d="M354.72,19.45v21c0,2.57,1.45,4.91,3.74,6.06l24.82,12.41c0.94,0.47,1.98,0.72,3.03,0.72h28.4h53.23
		c3.74,0,6.77-3.03,6.77-6.77V6.41c0-3.74-3.03-6.77-6.77-6.77h-53.23h-28.33c-1.1,0-2.17,0.27-3.14,0.77l-24.89,13.04
		C356.12,14.62,354.72,16.93,354.72,19.45z"/>
	<g>
		<path class="st0" d="M29.47,14.39h4.23v32.03h-4.23v-6.28c-2.95,4.68-7.24,7.05-12.94,7.05c-4.55,0-8.46-1.6-11.72-4.87
			C1.6,39.05,0,35.08,0,30.4s1.6-8.65,4.8-11.92c3.27-3.27,7.18-4.87,11.72-4.87c5.7,0,9.99,2.37,12.94,7.05V14.39z M16.85,43.09
			c3.52,0,6.54-1.22,8.97-3.65c2.43-2.5,3.65-5.51,3.65-9.03s-1.22-6.53-3.65-8.97c-2.43-2.5-5.45-3.72-8.97-3.72
			s-6.53,1.22-8.97,3.72c-2.44,2.43-3.65,5.44-3.65,8.97s1.22,6.54,3.65,9.03C10.31,41.87,13.33,43.09,16.85,43.09z"/>
		<path class="st0" d="M43.38,19.7c1.99-3.91,5.32-5.83,10.12-5.83v4.1c-5.83,0-10.12,3.27-10.12,10.63v17.81h-4.23V14.39h4.23V19.7
			z"/>
		<path class="st0" d="M81.38,14.39h4.23v32.03h-4.23v-6.28c-2.95,4.68-7.24,7.05-12.94,7.05c-4.55,0-8.46-1.6-11.72-4.87
			c-3.2-3.27-4.8-7.24-4.8-11.92s1.6-8.65,4.8-11.92c3.27-3.27,7.18-4.87,11.72-4.87c5.7,0,9.99,2.37,12.94,7.05V14.39z
			 M68.76,43.09c3.52,0,6.54-1.22,8.97-3.65c2.43-2.5,3.65-5.51,3.65-9.03s-1.22-6.53-3.65-8.97c-2.43-2.5-5.45-3.72-8.97-3.72
			s-6.53,1.22-8.97,3.72c-2.44,2.43-3.65,5.44-3.65,8.97s1.22,6.54,3.65,9.03C62.22,41.87,65.23,43.09,68.76,43.09z"/>
		<path class="st0" d="M150.78,46.42h-8.26l-13.13-14.8v14.8h-6.92V1.57h6.92v26.97l12.43-14.16h8.46l-14.09,15.7L150.78,46.42z"/>
		<path class="st0" d="M152.26,8.3c-1.73-1.79-1.73-4.48,0-6.21c1.73-1.79,4.55-1.79,6.28,0c1.73,1.73,1.73,4.42-0.06,6.21
			C156.75,10.03,154.05,10.03,152.26,8.3z M151.94,46.42V14.39h6.92v32.03H151.94z"/>
		<path class="st0" d="M170.27,19.77c1.73-3.97,5.06-5.96,9.87-5.96v7.49c-2.63-0.19-4.93,0.45-6.92,1.92
			c-1.99,1.41-2.95,3.78-2.95,7.05v16.14h-6.92V14.39h6.92V19.77z"/>
		<path class="st0" d="M205.63,14.39h6.92v32.03h-6.92V41.8c-2.63,3.65-6.34,5.45-11.21,5.45c-4.42,0-8.14-1.6-11.27-4.87
			c-3.14-3.27-4.68-7.3-4.68-11.98c0-4.74,1.54-8.71,4.68-11.98c3.14-3.27,6.85-4.87,11.27-4.87c4.87,0,8.58,1.79,11.21,5.38V14.39z
			 M195.51,40.65c2.88,0,5.32-0.96,7.24-2.88c1.92-1.99,2.88-4.42,2.88-7.37s-0.96-5.38-2.88-7.3c-1.92-1.99-4.36-2.95-7.24-2.95
			c-2.88,0-5.32,0.96-7.24,2.95c-1.92,1.92-2.88,4.36-2.88,7.3s0.96,5.38,2.88,7.37C190.2,39.69,192.63,40.65,195.51,40.65z"/>
		<path class="st0" d="M217.11,46.42V-0.35h6.92v46.77H217.11z"/>
		<path class="st0" d="M253.89,14.39h6.92v32.03h-6.92V41.8c-2.63,3.65-6.34,5.45-11.21,5.45c-4.42,0-8.14-1.6-11.27-4.87
			c-3.14-3.27-4.68-7.3-4.68-11.98c0-4.74,1.54-8.71,4.68-11.98c3.14-3.27,6.85-4.87,11.27-4.87c4.87,0,8.58,1.79,11.21,5.38V14.39z
			 M243.77,40.65c2.88,0,5.32-0.96,7.24-2.88c1.92-1.99,2.88-4.42,2.88-7.37s-0.96-5.38-2.88-7.3c-1.92-1.99-4.36-2.95-7.24-2.95
			s-5.32,0.96-7.24,2.95c-1.92,1.92-2.88,4.36-2.88,7.3s0.96,5.38,2.88,7.37C238.45,39.69,240.89,40.65,243.77,40.65z"/>
		<path class="st0" d="M312.46,26.56v19.86h-6.92V27.01c0-4.42-2.37-6.98-6.21-6.98c-4.29,0-6.98,2.82-6.98,8.46v17.94h-6.92V27.01
			c0-4.42-2.18-6.98-6.02-6.98c-4.17,0-7.11,2.88-7.11,8.46v17.94h-6.92V14.39h6.92v3.84c2.05-3.14,5.13-4.68,9.16-4.68
			c4.1,0,7.11,1.66,9.1,5.06c2.11-3.4,5.38-5.06,9.8-5.06C307.59,13.55,312.46,18.61,312.46,26.56z"/>
		<path class="st0" d="M341.75,14.39h6.92v32.03h-6.92V41.8c-2.63,3.65-6.34,5.45-11.21,5.45c-4.42,0-8.14-1.6-11.27-4.87
			c-3.14-3.27-4.68-7.3-4.68-11.98c0-4.74,1.54-8.71,4.68-11.98c3.14-3.27,6.85-4.87,11.27-4.87c4.87,0,8.58,1.79,11.21,5.38V14.39z
			 M331.63,40.65c2.88,0,5.32-0.96,7.24-2.88c1.92-1.99,2.88-4.42,2.88-7.37s-0.96-5.38-2.88-7.3c-1.92-1.99-4.36-2.95-7.24-2.95
			s-5.32,0.96-7.24,2.95c-1.92,1.92-2.88,4.36-2.88,7.3s0.96,5.38,2.88,7.37C326.31,39.69,328.74,40.65,331.63,40.65z"/>
		<path class="st0" d="M120.34,38.86l-3.52-2.05c-2.11,3.84-6.02,6.28-10.83,6.28c-3.52,0-6.53-1.22-8.97-3.65
			c-2.44-2.5-3.65-5.51-3.65-9.03s1.22-6.53,3.65-8.97c2.43-2.5,5.44-3.72,8.97-3.72c4.81,0,8.84,2.43,10.57,6.28l3.46-1.99
			c-2.31-5.13-7.69-8.39-14.03-8.39c-4.8,0-8.84,1.6-12.04,4.87c-3.2,3.2-4.8,7.17-4.8,11.92s1.6,8.71,4.8,11.98
			c2.75,2.75,6.15,4.25,10.09,4.64v4.44h4.3v-4.43C113.57,46.33,118.05,43.33,120.34,38.86z"/>
	</g>
	<g>
		<path class="st1" d="M385.03,28.14h9.58v5.26h-9.58v6.9h-6.05V19.19h16.86v5.23h-10.81V28.14z"/>
		<path class="st1" d="M403.21,12.21c0.62,0.62,0.93,1.36,0.93,2.22c0,0.92-0.3,1.68-0.91,2.27c-0.61,0.59-1.39,0.88-2.33,0.88
			s-1.72-0.29-2.32-0.88c-0.6-0.59-0.9-1.34-0.9-2.27c0-0.86,0.3-1.6,0.91-2.22c0.61-0.62,1.38-0.93,2.3-0.93
			S402.59,11.59,403.21,12.21z M397.9,40.3V19.19h6.05V40.3H397.9z"/>
		<path class="st1" d="M419.81,33.84v6.46h-6.3v-6.46l-7.97-14.66h6.65l4.6,8.57l4.57-8.57h6.71L419.81,33.84z"/>
		<path class="st1" d="M441.56,40.3l-1.17-3.21h-8.32l-1.2,3.21h-6.49l8.51-21.11h6.68l8.51,21.11H441.56z M436.27,25.68l-2.33,6.34
			h4.63L436.27,25.68z"/>
		<path class="st1" d="M458.9,24.39V40.3h-6.08V24.39h-6.62v-5.2h19.32v5.2H458.9z"/>
	</g>
	<circle class="st1" cx="366.37" cy="29.64" r="4.23"/>
</g>
</svg>
