<?xml version="1.0" encoding="utf-8"?>
<!-- Generator: Adobe Illustrator 26.2.1, SVG Export Plug-In . SVG Version: 6.00 Build 0)  -->
<svg version="1.1" id="Layer_1" xmlns="http://www.w3.org/2000/svg" xmlns:xlink="http://www.w3.org/1999/xlink" x="0px" y="0px"
	 width="64px" height="64px" viewBox="0 0 64 64" style="enable-background:new 0 0 64 64;" xml:space="preserve">
<style type="text/css">
	.st0{fill:#FF0000;}
	.st1{fill:#FFFFFF;}
</style>
<g>
	<path class="st0" d="M0,26.68l0,11.2c0,1.37,0.77,2.62,2,3.23l13.24,6.62c0.5,0.25,1.05,0.38,1.62,0.38H32h28.39
		c2,0,3.61-1.62,3.61-3.61V19.72c0-2-1.62-3.61-3.61-3.61H32H16.89c-0.58,0-1.16,0.14-1.68,0.41L1.94,23.48
		C0.75,24.1,0,25.33,0,26.68z"/>
	<g>
		<path class="st1" d="M16.17,31.31h5.11v2.81h-5.11v3.68h-3.23V26.54h8.99v2.79h-5.76V31.31z"/>
		<path class="st1" d="M25.86,22.81c0.33,0.33,0.5,0.73,0.5,1.18c0,0.49-0.16,0.9-0.49,1.21c-0.32,0.31-0.74,0.47-1.24,0.47
			c-0.5,0-0.92-0.16-1.24-0.47c-0.32-0.31-0.48-0.72-0.48-1.21c0-0.46,0.16-0.85,0.49-1.18c0.32-0.33,0.73-0.5,1.23-0.5
			C25.12,22.32,25.53,22.48,25.86,22.81z M23.03,37.8V26.54h3.23V37.8H23.03z"/>
		<path class="st1" d="M34.71,34.35v3.45h-3.36v-3.45l-4.25-7.82h3.55l2.45,4.57l2.44-4.57h3.58L34.71,34.35z"/>
		<path class="st1" d="M46.32,37.8l-0.62-1.71h-4.44l-0.64,1.71h-3.46l4.54-11.26h3.56l4.54,11.26H46.32z M43.49,30l-1.24,3.38h2.47
			L43.49,30z"/>
		<path class="st1" d="M55.56,29.31v8.49h-3.24v-8.49h-3.53v-2.77h10.3v2.77H55.56z"/>
	</g>
	<circle class="st1" cx="6.22" cy="32.11" r="2.26"/>
</g>
</svg>
